<?xml version="1.0" encoding="utf-8"?>
<!-- Generator: Adobe Illustrator 21.1.0, SVG Export Plug-In . SVG Version: 6.00 Build 0)  -->
<svg version="1.1" id="レイヤー_1" xmlns="http://www.w3.org/2000/svg" xmlns:xlink="http://www.w3.org/1999/xlink" x="0px"
	 y="0px" viewBox="0 0 200 200" style="enable-background:new 0 0 200 200;" xml:space="preserve">
<style type="text/css">
	.st0{fill:#33549E;}
</style>
<title>アセット 11</title>
<g id="レイヤー_2">
	<g id="レイヤー_1-2">
		<path class="st0" d="M189,0H11C4.9,0,0,4.9,0,11v178c0,6.1,4.9,11,11,11h95.8v-77.4H80.7V92.4h26.1V70.1
			c0-25.8,15.8-39.8,38.8-39.8c7.8,0,15.6,0.4,23.3,1.2v26.9h-16.1c-12.5,0-14.9,6-14.9,14.8v19.2h29.8l-3.9,30.2H138V200h50.9
			c6.1,0,11-4.8,11.1-10.9c0,0,0-0.1,0-0.1V11C200,4.9,195.1,0,189,0"/>
	</g>
</g>
</svg>
