<?xml version="1.0" encoding="utf-8"?>
<!-- Generator: Adobe Illustrator 21.1.0, SVG Export Plug-In . SVG Version: 6.00 Build 0)  -->
<svg version="1.1" id="レイヤー_1" xmlns="http://www.w3.org/2000/svg" xmlns:xlink="http://www.w3.org/1999/xlink" x="0px"
	 y="0px" viewBox="0 0 200 200" style="enable-background:new 0 0 200 200;" xml:space="preserve">
<style type="text/css">
	.st0{fill:#48B723;}
</style>
<title>アセット 10</title>
<g id="レイヤー_2">
	<g id="レイヤー_1-2">
		<path class="st0" d="M117.2,77.8c-2.1,0-3.8,1.7-3.8,3.7v17.6L98.8,79.3c-0.7-0.9-1.8-1.5-2.9-1.5h-1.2c-1.5,0.5-2.6,2-2.6,3.6
			V110c0,2.1,1.7,3.8,3.7,3.8c2.1,0,3.8-1.7,3.8-3.7l0,0V92.5l14.6,19.8c0.7,1,1.8,1.5,3,1.5h1.2c1.5-0.5,2.6-2,2.6-3.6V81.6
			C120.9,79.5,119.2,77.8,117.2,77.8z"/>
		<path class="st0" d="M72,106.2H61.6v-25c0-2.1-1.7-3.8-3.8-3.8S54,79.1,54,81.2V110c0,2.1,1.7,3.8,3.8,3.8H72
			c2.1,0,3.7-1.7,3.7-3.8C75.7,107.9,74.1,106.3,72,106.2z"/>
		<path class="st0" d="M83.3,77.8c-2.1,0-3.8,1.7-3.8,3.7V110c0,2.1,1.7,3.7,3.8,3.7c2.1,0,3.7-1.7,3.7-3.7V81.6
			C87.1,79.5,85.4,77.8,83.3,77.8z"/>
		<path class="st0" d="M143.8,85.3c2.1,0,3.7-1.7,3.7-3.8c0-2.1-1.7-3.7-3.7-3.7h-14.2c-2.1,0-3.8,1.7-3.8,3.7V110
			c0,2.1,1.7,3.8,3.8,3.8h14.2c2.1,0,3.8-1.7,3.8-3.7c0-2.1-1.7-3.8-3.7-3.8l0,0h-10.5v-6.7h10.4c2.1,0,3.7-1.7,3.7-3.8
			c0-2.1-1.7-3.7-3.7-3.7h-10.4v-6.7L143.8,85.3z"/>
		<path class="st0" d="M189,0H11C4.9,0,0,4.9,0,11v178c0,6.1,4.9,11,11,11h177.9c6.1,0,11-4.8,11.1-10.9V189V11
			C200,4.9,195.1,0,189,0z M156.2,130.2c-16.5,16.7-35.4,30.7-56.2,41.7c-7.7,3.2-6.5-2.1-6.2-3.8l1-6.1c0.5-2.1,0.5-4.3,0-6.4
			c-0.8-2-4-3-6.3-3.5c-34.3-4.6-59.7-28.6-59.7-57.2c0-32,32.1-58.3,71.4-58.3s71.4,26,71.4,58.3
			C171.3,108.2,165.8,120.9,156.2,130.2z"/>
	</g>
</g>
</svg>
