<?xml version="1.0" encoding="utf-8"?>
<!-- Generator: Adobe Illustrator 21.1.0, SVG Export Plug-In . SVG Version: 6.00 Build 0)  -->
<svg version="1.1" id="レイヤー_1" xmlns="http://www.w3.org/2000/svg" xmlns:xlink="http://www.w3.org/1999/xlink" x="0px"
	 y="0px" viewBox="0 0 200 200" style="enable-background:new 0 0 200 200;" xml:space="preserve">
<style type="text/css">
	.st0{fill:#3590DB;}
</style>
<title>アセット 9</title>
<g id="レイヤー_2">
	<g id="レイヤー_1-2">
		<path class="st0" d="M189,0H11C4.9,0,0,4.9,0,11v178c0,6.1,4.9,11,11,11h177.9c6.1,0,11-4.8,11.1-10.9c0,0,0-0.1,0-0.1V11
			C200,4.9,195.1,0,189,0z M154.1,72.4c0,1.2,0,2.4,0,3.6c-0.1,43.9-35.8,79.3-79.6,79.2c-15.1,0-29.9-4.4-42.6-12.5
			c2.2,0.1,4.4,0.1,6.7,0c12.5,0,24.7-4.2,34.6-11.9c-11.9-0.2-22.4-8-26.1-19.3c4.2,0.8,8.4,0.6,12.5-0.5
			c-13-2.7-22.3-14.1-22.3-27.3l0,0c3.9,2.2,8.3,3.4,12.8,3.6C42.2,82,37.5,73.3,37.5,63.9C37.6,59,39,54.2,41.7,50
			c14.2,17.4,35.1,28,57.5,29.1c-0.5-2.1-0.7-4.2-0.8-6.3c0.1-15.4,12.6-27.9,28-27.8c7.7,0,15,3.2,20.2,8.8
			c6.2-1.3,12.2-3.5,17.8-6.7c-2.1,6.4-6.4,11.9-12.2,15.4c5.5-0.7,10.9-2.2,16-4.4l0,0C164.4,63.6,159.6,68.5,154.1,72.4z"/>
	</g>
</g>
</svg>
