<?xml version="1.0" encoding="utf-8"?>
<!-- Generator: Adobe Illustrator 21.1.0, SVG Export Plug-In . SVG Version: 6.00 Build 0)  -->
<svg version="1.1" id="レイヤー_1" height="800" width="382" xmlns="http://www.w3.org/2000/svg" xmlns:xlink="http://www.w3.org/1999/xlink" x="0px"
	 y="0px" viewBox="0 0 25 53.3" style="enable-background:new 0 0 25 53.3;" xml:space="preserve" preserveAspectRatio="xMinYMid">
<style type="text/css">
	.st0{fill:#e4d7b3;}
</style>
<path class="st0" d="M25,52.6c0-2.6-1.1-4.6-1.2-4.7l0,0c-1.8-3.1-5.3-5.1-9.3-7.5L14,40.1C8.7,37,2.7,33.5,2.5,26.9l0-0.7
	C2.7,19.4,9.1,15.8,14.2,13l0.2-0.1c4-2.3,7.7-4.5,9.5-7.7l0,0C24.5,4.3,25,2,25,0.7V0h-2.5v0.7c0,4.6-4.5,7.2-9.6,10.2L12.7,11
	C7.2,14.2,0.2,18.3,0,26.3L0,27c0.2,8.3,7.5,12.4,12.9,15.4c5.2,3,9.6,5.5,9.6,10.2v0.7H25V52.6z"/>
</svg>
