<?xml version="1.0" encoding="utf-8"?>
<!-- Generator: Adobe Illustrator 21.1.0, SVG Export Plug-In . SVG Version: 6.00 Build 0)  -->
<svg version="1.1" id="レイヤー_1" width="800" height="382" xmlns="http://www.w3.org/2000/svg" xmlns:xlink="http://www.w3.org/1999/xlink" x="0px"
	 y="0px" viewBox="0 0 53.3 25" style="enable-background:new 0 0 53.3 25;" xml:space="preserve" preserveAspectRatio="xMinYMid">
<style type="text/css">
	.st0{fill:#e4d7b3;}
</style>
<path class="st0" d="M52.6,0C50,0,48,1.1,48,1.2l0,0c-3.1,1.8-5.1,5.3-7.5,9.3L40.1,11c-3.1,5.3-6.6,11.3-13.2,11.5l-0.7,0
	C19.4,22.3,15.8,16,13,10.9l-0.1-0.2c-2.3-4-4.5-7.7-7.7-9.5l0,0C4.3,0.5,2,0,0.7,0H0v2.5h0.7c4.6,0,7.2,4.5,10.2,9.6l0.1,0.1
	c3.2,5.6,7.3,12.5,15.3,12.7l0.7,0c8.3-0.2,12.4-7.5,15.4-12.9c3-5.2,5.5-9.6,10.2-9.6h0.7V0H52.6z"/>
</svg>
